<?xml version="1.0" standalone="no"?><!DOCTYPE svg PUBLIC "-//W3C//DTD SVG 1.1//EN" "http://www.w3.org/Graphics/SVG/1.1/DTD/svg11.dtd"><svg t="1599623284658" class="icon" viewBox="0 0 1024 1024" version="1.1" xmlns="http://www.w3.org/2000/svg" p-id="2629" xmlns:xlink="http://www.w3.org/1999/xlink" width="200" height="200"><defs><style type="text/css"></style></defs><path d="M793.344 460.8l2.986667 2.030933c18.039467 14.0288 39.850667 38.877867 60.194133 49.169067 26.658133 13.482667 51.950933 28.7232 81.2032 35.601067 15.172267 3.584 30.429867 6.485333 45.9776 7.68l10.717867 0.682666 29.576533 1.348267-0.034133 227.703467c0 5.6832-0.2048 11.383467-0.836267 17.032533-2.1504 19.319467-7.953067 37.614933-16.145067 55.210667-11.741867 25.1904-27.4432 47.786667-45.994666 68.471466-31.3344 34.952533-67.498667 63.709867-110.455467 83.5584a161.058133 161.058133 0 0 1-39.3728 12.8c-4.3008 0.785067-8.6528 1.28-12.970667 1.911467h-9.147733l-10.069333-1.399467c-18.107733-2.901333-34.986667-9.3696-51.2512-17.5616-31.812267-16.008533-59.904-37.1712-85.128534-62.0544-23.995733-23.637333-44.544-49.834667-59.562666-80.0256-12.2368-24.490667-19.8656-50.1248-19.831467-77.755733l0.0512-112.384v-115.131733l0.733867-0.3584 1.194666-0.119467 1.194667-0.068267c20.992-0.324267 41.8304-1.706667 62.5152-5.546666 15.9232-2.9696 46.762667-14.062933 70.314667-26.282667 24.7808-12.868267 84.002133-56.337067 94.139733-64.512z m-1.4848 69.307733c-20.309333 12.731733-51.2 28.330667-85.7088 44.9024l-6.946133 3.328c-9.608533 4.573867-74.496 28.2112-84.992 29.9008l-0.682667 122.538667c-0.1536 52.411733 0.068267 80.110933 0.682667 83.0976l2.389333 11.639467c2.218667 9.728 3.8912 12.014933 12.9536 25.6 23.773867 35.584 54.272 64.5632 89.5488 88.712533 16.315733 11.195733 33.467733 20.872533 52.4288 27.067733 10.154667 3.310933 20.445867 5.000533 31.163733 2.9696 14.404267-2.730667 27.630933-8.482133 40.379734-15.36 27.511467-14.848 51.9168-33.792 74.018133-55.688533 20.667733-20.4288 38.673067-42.888533 51.797333-68.9152 9.454933-18.807467 3.362133-23.3984 3.345067-44.6976l0.187733-104.413867 0.341334-72.5504c-9.045333-1.365333-62.6688-20.8384-85.504-29.9008-32-12.6976-62.6688-30.0032-91.784534-48.2304-1.365333-0.853333-2.304-0.8192-3.618133 0zM221.7472 17.066667v68.266666H119.466667c-19.387733 0-32.8704 12.253867-34.048 32.119467L85.333333 120.354133v698.9312c0 20.5824 12.509867 33.024 31.402667 33.9968L119.466667 853.333333h238.933333c22.545067 5.051733 33.826133 16.520533 33.826133 34.4064 0 16.878933-10.069333 27.886933-30.173866 33.024L358.4 921.6H110.421333c-50.039467 0-91.3408-41.1136-93.2864-92.945067L17.066667 824.832V110.933333c0-52.309333 40.0896-91.886933 90.112-93.7984L110.933333 17.066667h110.813867z m667.118933 648.533333L921.6 697.002667 777.216 870.4 682.666667 786.756267l29.115733-35.754667 60.893867 53.2992 115.2512-137.642667 0.938666-1.058133z m-462.148266-51.2c17.015467 0 33.6896 16.725333 33.6896 34.116267 0 16.571733-15.189333 32.631467-31.368534 34.048l-2.321066 0.1024H204.407467C187.8528 682.666667 170.666667 665.429333 170.666667 648.516267c0-16.759467 15.394133-32.597333 31.4368-34.013867l2.304-0.1024h222.3104zM512 426.666667c16.657067 0 34.133333 17.288533 34.133333 34.133333 0 16.0768-15.837867 32.5632-31.8464 34.030933L512 494.933333H205.226667C187.5968 494.933333 170.666667 477.559467 170.666667 460.782933c0-16.315733 15.6672-32.5632 32.2048-34.013866l2.3552-0.1024H512zM776.533333 17.066667c34.167467 0 91.1872 41.250133 93.781334 92.672l0.085333 3.754666V358.4c-4.164267 22.9376-15.394133 34.423467-33.672533 34.423467-17.3056 0-28.5696-10.308267-33.792-30.890667L802.133333 358.4V119.466667c0-20.036267-11.127467-32.9216-31.197866-34.048L768 85.333333h-102.4V17.066667h110.933333zM682.666667 238.933333c17.066667 0 34.167467 16.2816 34.167466 34.133334 0 17.0496-15.735467 32.648533-31.863466 34.030933L682.666667 307.2H204.970667c-16.964267 0-34.304-17.117867-34.304-36.590933 0-14.626133 15.138133-30.122667 31.7952-31.573334L204.970667 238.933333H682.666667zM527.4624 0C547.4304 0 563.2 18.602667 563.2 40.925867v20.599466C563.2 84.394667 546.952533 102.4 527.4624 102.4h-167.458133C340.292267 102.4 324.3008 84.104533 324.266667 61.525333V40.925867C324.266667 18.056533 340.514133 0 360.004267 0h167.458133z" fill="#1296db" p-id="2630"></path></svg>