<?xml version="1.0" standalone="no"?><!DOCTYPE svg PUBLIC "-//W3C//DTD SVG 1.1//EN" "http://www.w3.org/Graphics/SVG/1.1/DTD/svg11.dtd"><svg t="1601362532839" class="icon" viewBox="0 0 1024 1024" version="1.1" xmlns="http://www.w3.org/2000/svg" p-id="3399" xmlns:xlink="http://www.w3.org/1999/xlink" width="128" height="128"><defs><style type="text/css"></style></defs><path d="M858.368 1002.624 165.632 1002.624c-79.552 0-144.32-64.704-144.32-144.32L21.312 165.632c0-79.616 64.768-144.32 144.32-144.32l692.736 0c79.616 0 144.32 64.704 144.32 144.32l0 692.736C1002.688 937.92 937.92 1002.624 858.368 1002.624zM165.632 79.04c-47.744 0-86.592 38.848-86.592 86.592l0 692.736c0 47.744 38.848 86.592 86.592 86.592l692.736 0c47.744 0 86.592-38.848 86.592-86.592L944.96 165.632c0-47.744-38.848-86.592-86.592-86.592L165.632 79.04z" p-id="3400"></path><path d="M837.312 480 544 480 544 480 480 480 480 480 186.688 480 186.688 544 480 544 480 544 544 544 544 544 837.312 544Z" p-id="3401"></path></svg>