<?xml version="1.0" standalone="no"?><!DOCTYPE svg PUBLIC "-//W3C//DTD SVG 1.1//EN" "http://www.w3.org/Graphics/SVG/1.1/DTD/svg11.dtd"><svg t="1599623262760" class="icon" viewBox="0 0 1024 1024" version="1.1" xmlns="http://www.w3.org/2000/svg" p-id="2458" xmlns:xlink="http://www.w3.org/1999/xlink" width="200" height="200"><defs><style type="text/css"></style></defs><path d="M499.712 499.712c50.688-40.448 82.944-101.888 82.944-171.52 0-120.832-98.304-219.648-219.648-219.648S143.36 206.848 143.36 328.192c0 70.144 33.28 132.608 84.992 173.056C94.72 555.52 0 687.104 0 840.192v37.888c0 19.968 16.384 36.352 36.352 36.352h658.432c19.96288 0 36.352-16.37888 36.352-36.352v-37.888c1.024-155.136-95.744-287.232-231.424-340.48zM217.088 328.192c0-80.896 65.536-146.432 146.432-146.432s146.432 65.536 146.432 146.432c0 79.872-64 144.384-143.36 145.92h-4.608c-79.872-0.512-144.896-66.048-144.896-145.92z m-143.36 513.024v-1.536c0-159.744 129.024-289.792 288.256-292.352H368.64c160.256 1.01888 290.816 131.57888 290.816 292.352l-585.728 1.536z m912.896-512h-315.392c-19.96288 0-36.352-16.384-36.352-36.352 0-19.968 16.384-36.352 36.352-36.352h315.392c19.96288 0 36.352 16.384 36.352 36.352 0 19.968-16.384 36.352-36.352 36.352z m0 182.784h-249.856c-19.968 0-36.35712-16.384-36.35712-36.352s16.384-36.352 36.35712-36.352h249.856c19.96288 0 36.352 16.384 36.352 36.352s-16.384 36.352-36.352 36.352z m0 182.784h-174.592c-19.96288 0-36.352-16.384-36.352-36.35712 0-19.96288 16.384-36.352 36.352-36.352h174.592c19.96288 0 36.352 16.384 36.352 36.352 0 19.97312-16.384 36.35712-36.352 36.35712z" fill="#1296db" p-id="2459"></path><path d="M319.82592 788.16256a15.89248 15.89248 0 0 1-22.01088-4.33152l-60.9536-90.81856a15.89248 15.89248 0 0 1 4.33152-22.01088 15.89248 15.89248 0 0 1 22.01088 4.33152l60.91776 90.76736a15.89248 15.89248 0 0 1-4.29568 22.06208z" fill="#1296db" p-id="2460"></path><path d="M505.05728 646.69696a15.89248 15.89248 0 0 1-4.33664 22.01088l-178.6112 119.9104a15.8976 15.8976 0 0 1-22.016-4.33152 15.8976 15.8976 0 0 1 4.33152-22.016l178.65216-119.90016a15.7696 15.7696 0 0 1 21.98016 4.3264z" fill="#1296db" p-id="2461"></path></svg>